  0
SECTION
  2
HEADER
  9
$ACADVER
  1
AC1014
  9
$HANDSEED
  5
FFFF
  9
$MEASUREMENT
 70
     1
  0
ENDSEC
  0
SECTION
  2
TABLES
  0
TABLE
  2
VPORT
  5
8
330
0
100
AcDbSymbolTable
 70
     4
  0
VPORT
  5
2E
330
8
100
AcDbSymbolTableRecord
100
AcDbViewportTableRecord
  2
*ACTIVE
 70
     0
 10
0.0
 20
0.0
 11
1.0
 21
1.0
 12
210.0
 22
148.5
 13
0.0
 23
0.0
 14
10.0
 24
10.0
 15
10.0
 25
10.0
 16
0.0
 26
0.0
 36
1.0
 17
0.0
 27
0.0
 37
0.0
 40
341.0
 41
1.24
 42
50.0
 43
0.0
 44
0.0
 50
0.0
 51
0.0
 71
     0
 72
   100
 73
     1
 74
     3
 75
     0
 76
     0
 77
     0
 78
     0
  0
ENDTAB
  0
TABLE
  2
LTYPE
  5
5
330
0
100
AcDbSymbolTable
 70
     1
  0
LTYPE
  5
14
330
5
100
AcDbSymbolTableRecord
100
AcDbLinetypeTableRecord
  2
BYBLOCK
 70
     0
  3

 72
    65
 73
     0
 40
0.0
  0
LTYPE
  5
15
330
5
100
AcDbSymbolTableRecord
100
AcDbLinetypeTableRecord
  2
BYLAYER
 70
     0
  3

 72
    65
 73
     0
 40
0.0
  0
LTYPE
  5
16
330
5
100
AcDbSymbolTableRecord
100
AcDbLinetypeTableRecord
  2
CONTINUOUS
 70
     0
  3
Solid line
 72
    65
 73
     0
 40
0.0
  0
ENDTAB
  0
TABLE
  2
LAYER
  5
2
100
AcDbSymbolTable
 70
5
  0
LAYER
  5
50
100
AcDbSymbolTableRecord
100
AcDbLayerTableRecord
  2
0
 70
0
  6
CONTINUOUS
  0
LAYER
  5
51
100
AcDbSymbolTableRecord
100
AcDbLayerTableRecord
  2
mfos_vco_VI_panel_2
 70
0
  6
CONTINUOUS
  0
LAYER
  5
52
100
AcDbSymbolTableRecord
100
AcDbLayerTableRecord
  2
holes
 70
0
  6
CONTINUOUS
  0
LAYER
  5
53
100
AcDbSymbolTableRecord
100
AcDbLayerTableRecord
  2
text
 70
0
  6
CONTINUOUS
  0
LAYER
  5
54
100
AcDbSymbolTableRecord
100
AcDbLayerTableRecord
  2
overlay#1
 70
0
  6
CONTINUOUS
  0
ENDTAB
  0
TABLE
  2
STYLE
  5
3
330
0
100
AcDbSymbolTable
 70
     1
  0
STYLE
  5
11
330
3
100
AcDbSymbolTableRecord
100
AcDbTextStyleTableRecord
  2
STANDARD
 70
     0
 40
0.0
 41
1.0
 50
0.0
 71
     0
 42
2.5
  3
txt
  4

  0
ENDTAB
  0
TABLE
  2
VIEW
  5
6
330
0
100
AcDbSymbolTable
 70
     0
  0
ENDTAB
  0
TABLE
  2
UCS
  5
7
330
0
100
AcDbSymbolTable
 70
     0
  0
ENDTAB
  0
TABLE
  2
APPID
  5
9
330
0
100
AcDbSymbolTable
 70
     2
  0
APPID
  5
12
330
9
100
AcDbSymbolTableRecord
100
AcDbRegAppTableRecord
  2
ACAD
 70
     0
  0
ENDTAB
  0
TABLE
  2
DIMSTYLE
  5
A
330
0
100
AcDbSymbolTable
 70
     1
  0
DIMSTYLE
105
27
330
A
100
AcDbSymbolTableRecord
100
AcDbDimStyleTableRecord
  2
ISO-25
 70
     0
  3

  4

  5

  6

  7

 40
1.0
 41
2.5
 42
0.625
 43
3.75
 44
1.25
 45
0.0
 46
0.0
 47
0.0
 48
0.0
140
2.5
141
2.5
142
0.0
143
0.03937007874016
144
1.0
145
0.0
146
1.0
147
0.625
 71
     0
 72
     0
 73
     0
 74
     0
 75
     0
 76
     0
 77
     1
 78
     8
170
     0
171
     3
172
     1
173
     0
174
     0
175
     0
176
     0
177
     0
178
     0
270
     2
271
     2
272
     2
273
     2
274
     3
340
11
275
     0
280
     0
281
     0
282
     0
283
     0
284
     8
285
     0
286
     0
287
     3
288
     0
  0
ENDTAB
  0
TABLE
  2
BLOCK_RECORD
  5
1
330
0
100
AcDbSymbolTable
 70
     1
  0
BLOCK_RECORD
  5
1F
330
1
100
AcDbSymbolTableRecord
100
AcDbBlockTableRecord
  2
*MODEL_SPACE
  0
BLOCK_RECORD
  5
1B
330
1
100
AcDbSymbolTableRecord
100
AcDbBlockTableRecord
  2
*PAPER_SPACE
  0
ENDTAB
  0
ENDSEC
  0
SECTION
  2
BLOCKS
  0
BLOCK
  5
20
330
1F
100
AcDbEntity
  8
0
100
AcDbBlockBegin
  2
*MODEL_SPACE
 70
     0
 10
0.0
 20
0.0
 30
0.0
  3
*MODEL_SPACE
  1

  0
ENDBLK
  5
21
330
1F
100
AcDbEntity
  8
0
100
AcDbBlockEnd
  0
BLOCK
  5
1C
330
1B
100
AcDbEntity
 67
     1
  8
0
100
AcDbBlockBegin
  2
*PAPER_SPACE
  1

  0
ENDBLK
  5
1D
330
1B
100
AcDbEntity
 67
     1
  8
0
100
AcDbBlockEnd
  0
ENDSEC
  0
SECTION
  2
ENTITIES
  0
LWPOLYLINE
  5
100
100
AcDbEntity
  8
text
 62
5
100
AcDbPolyline
 90
5
 70
1
 10
1.835613
 20
273.482625
 30
0.0
 10
205.044571
 20
273.482625
 30
0.0
 10
205.044571
 20
6.289908
 30
0.0
 10
1.835613
 20
6.289908
 30
0.0
 10
1.835613
 20
273.482625
 30
0.0
  0
LWPOLYLINE
  5
101
100
AcDbEntity
  8
text
 62
1
100
AcDbPolyline
 90
6
 70
0
 10
11.688862
 20
140.865990
 30
0.0
 10
3.810101
 20
140.865990
 30
0.0
 10
3.810101
 20
269.294004
 30
0.0
 10
25.627289
 20
269.294004
 30
0.0
 10
25.627289
 20
140.865990
 30
0.0
 10
3.810101
 20
140.865990
 30
0.0
  0
SPLINE
  5
102
100
AcDbEntity
  8
text
 62
1
100
AcDbSpline
 70
0
 71
3
 72
19
 73
15
 74
13
 40
0.000000
 40
0.000000
 40
0.000000
 40
0.000000
 40
0.126184
 40
0.254237
 40
0.391691
 40
0.529031
 40
0.656649
 40
0.782733
 40
0.908904
 40
1.036636
 40
1.173998
 40
1.311474
 40
1.439641
 40
1.565913
 40
1.565913
 40
1.565913
 40
1.565913
 10
22.407103
 20
266.116885
 30
0.0
 10
22.399502
 20
266.074342
 30
0.0
 10
22.384188
 20
265.988626
 30
0.0
 10
22.277176
 20
265.898665
 30
0.0
 10
22.142864
 20
265.866339
 30
0.0
 10
22.006905
 20
265.898539
 30
0.0
 10
21.905054
 20
265.988799
 30
0.0
 10
21.866039
 20
266.116919
 30
0.0
 10
21.905074
 20
266.245052
 30
0.0
 10
22.006850
 20
266.335484
 30
0.0
 10
22.142864
 20
266.367831
 30
0.0
 10
22.277229
 20
266.335358
 30
0.0
 10
22.384175
 20
266.245228
 30
0.0
 10
22.399498
 20
266.159453
 30
0.0
 10
22.407103
 20
266.116885
 30
0.0
 11
22.407103
 21
266.116885
 31
0.0
 11
22.370963
 21
265.995987
 31
0.0
 11
22.276026
 21
265.910053
 31
0.0
 11
22.142519
 21
265.877349
 31
0.0
 11
22.009130
 21
265.910053
 31
0.0
 11
21.914782
 21
265.995987
 31
0.0
 11
21.878994
 21
266.116885
 31
0.0
 11
21.914782
 21
266.237875
 31
0.0
 11
22.009130
 21
266.323979
 31
0.0
 11
22.142519
 21
266.356774
 31
0.0
 11
22.276026
 21
266.323979
 31
0.0
 11
22.370963
 21
266.237875
 31
0.0
 11
22.407103
 21
266.116885
 31
0.0
  0
LWPOLYLINE
  5
103
100
AcDbEntity
  8
text
 62
1
100
AcDbPolyline
 90
2
 70
1
 10
22.407103
 20
266.116885
 30
0.0
 10
22.407103
 20
266.116885
 30
0.0
  0
SPLINE
  5
104
100
AcDbEntity
  8
text
 62
1
100
AcDbSpline
 70
0
 71
3
 72
19
 73
15
 74
13
 40
0.000000
 40
0.000000
 40
0.000000
 40
0.000000
 40
0.089692
 40
0.188036
 40
0.299667
 40
0.410927
 40
0.509590
 40
0.599390
 40
0.688956
 40
0.787563
 40
0.898821
 40
1.010449
 40
1.108736
 40
1.198194
 40
1.198194
 40
1.198194
 40
1.198194
 10
11.129363
 20
143.907825
 30
0.0
 10
11.122692
 20
143.877692
 30
0.0
 10
11.108707
 20
143.814522
 30
0.0
 10
11.020039
 20
143.753707
 30
0.0
 10
10.913528
 20
143.731987
 30
0.0
 10
10.805214
 20
143.753884
 30
0.0
 10
10.721031
 20
143.814423
 30
0.0
 10
10.684813
 20
143.907753
 30
0.0
 10
10.721079
 20
144.001022
 30
0.0
 10
10.805246
 20
144.061412
 30
0.0
 10
10.913528
 20
144.083311
 30
0.0
 10
11.020009
 20
144.061588
 30
0.0
 10
11.108649
 20
144.000927
 30
0.0
 10
11.122678
 20
143.937870
 30
0.0
 10
11.129363
 20
143.907825
 30
0.0
 11
11.129363
 21
143.907825
 31
0.0
 11
11.099873
 21
143.823119
 31
0.0
 11
11.022327
 21
143.762637
 31
0.0
 11
10.913110
 21
143.739550
 31
0.0
 11
10.804272
 21
143.762637
 31
0.0
 11
10.726321
 21
143.823119
 31
0.0
 11
10.696504
 21
143.907825
 31
0.0
 11
10.726321
 21
143.992282
 31
0.0
 11
10.804272
 21
144.052672
 31
0.0
 11
10.913110
 21
144.075747
 31
0.0
 11
11.022327
 21
144.052672
 31
0.0
 11
11.099873
 21
143.992282
 31
0.0
 11
11.129363
 21
143.907825
 31
0.0
  0
LWPOLYLINE
  5
105
100
AcDbEntity
  8
text
 62
1
100
AcDbPolyline
 90
2
 70
1
 10
11.129363
 20
143.907825
 30
0.0
 10
11.129363
 20
143.907825
 30
0.0
  0
LWPOLYLINE
  5
106
100
AcDbEntity
  8
text
 62
1
100
AcDbPolyline
 90
2
 70
0
 10
14.950586
 20
175.316440
 30
0.0
 10
17.311023
 20
175.316440
 30
0.0
  0
SPLINE
  5
107
100
AcDbEntity
  8
text
 62
1
100
AcDbSpline
 70
0
 71
3
 72
19
 73
15
 74
13
 40
0.000000
 40
0.000000
 40
0.000000
 40
0.000000
 40
1.596253
 40
3.049872
 40
4.646908
 40
6.242775
 40
7.695600
 40
9.291737
 40
10.887723
 40
12.340603
 40
13.936488
 40
15.533542
 40
16.987217
 40
18.583317
 40
18.583317
 40
18.583317
 40
18.583317
 10
13.178231
 20
175.316440
 30
0.0
 10
13.241441
 20
175.858834
 30
0.0
 10
13.362212
 20
176.895155
 30
0.0
 10
14.559710
 20
178.057859
 30
0.0
 10
16.128796
 20
178.378204
 30
0.0
 10
17.710079
 20
178.057867
 30
0.0
 10
18.871490
 20
176.894766
 30
0.0
 10
19.191626
 20
175.316485
 30
0.0
 10
18.871433
 20
173.738224
 30
0.0
 10
17.710100
 20
172.575109
 30
0.0
 10
16.128796
 20
172.254627
 30
0.0
 10
14.559688
 20
172.575117
 30
0.0
 10
13.362270
 20
173.737832
 30
0.0
 10
13.241458
 20
174.774106
 30
0.0
 10
13.178231
 20
175.316440
 30
0.0
 11
13.178231
 21
175.316440
 31
0.0
 11
13.550072
 21
176.868780
 31
0.0
 11
14.578158
 21
177.896422
 31
0.0
 11
16.131334
 21
178.268132
 31
0.0
 11
17.683308
 21
177.896422
 31
0.0
 11
18.710270
 21
176.868780
 31
0.0
 11
19.081614
 21
175.316440
 31
0.0
 11
18.710270
 21
173.764257
 31
0.0
 11
17.683308
 21
172.736537
 31
0.0
 11
16.131334
 21
172.364748
 31
0.0
 11
14.578158
 21
172.736537
 31
0.0
 11
13.550072
 21
173.764257
 31
0.0
 11
13.178231
 21
175.316440
 31
0.0
  0
LWPOLYLINE
  5
108
100
AcDbEntity
  8
text
 62
1
100
AcDbPolyline
 90
2
 70
0
 10
16.131334
 20
174.135693
 30
0.0
 10
16.131334
 20
176.497540
 30
0.0
  0
LWPOLYLINE
  5
109
100
AcDbEntity
  8
text
 62
1
100
AcDbPolyline
 90
2
 70
0
 10
14.919166
 20
222.403767
 30
0.0
 10
17.279602
 20
222.403767
 30
0.0
  0
SPLINE
  5
10a
100
AcDbEntity
  8
text
 62
1
100
AcDbSpline
 70
0
 71
3
 72
19
 73
15
 74
13
 40
0.000000
 40
0.000000
 40
0.000000
 40
0.000000
 40
1.596253
 40
3.049872
 40
4.646908
 40
6.242775
 40
7.695600
 40
9.291737
 40
10.887723
 40
12.340603
 40
13.936488
 40
15.533542
 40
16.987217
 40
18.583317
 40
18.583317
 40
18.583317
 40
18.583317
 10
13.146811
 20
222.403767
 30
0.0
 10
13.210020
 20
222.946161
 30
0.0
 10
13.330792
 20
223.982482
 30
0.0
 10
14.528289
 20
225.145186
 30
0.0
 10
16.097375
 20
225.465531
 30
0.0
 10
17.678658
 20
225.145194
 30
0.0
 10
18.840069
 20
223.982093
 30
0.0
 10
19.160206
 20
222.403813
 30
0.0
 10
18.840012
 20
220.825551
 30
0.0
 10
17.678680
 20
219.662436
 30
0.0
 10
16.097375
 20
219.341955
 30
0.0
 10
14.528267
 20
219.662445
 30
0.0
 10
13.330850
 20
220.825159
 30
0.0
 10
13.210038
 20
221.861433
 30
0.0
 10
13.146811
 20
222.403767
 30
0.0
 11
13.146811
 21
222.403767
 31
0.0
 11
13.518651
 21
223.956107
 31
0.0
 11
14.546737
 21
224.983749
 31
0.0
 11
16.099913
 21
225.355459
 31
0.0
 11
17.651887
 21
224.983749
 31
0.0
 11
18.678850
 21
223.956107
 31
0.0
 11
19.050194
 21
222.403767
 31
0.0
 11
18.678850
 21
220.851584
 31
0.0
 11
17.651887
 21
219.823864
 31
0.0
 11
16.099913
 21
219.452076
 31
0.0
 11
14.546737
 21
219.823864
 31
0.0
 11
13.518651
 21
220.851584
 31
0.0
 11
13.146811
 21
222.403767
 31
0.0
  0
LWPOLYLINE
  5
10b
100
AcDbEntity
  8
text
 62
1
100
AcDbPolyline
 90
2
 70
0
 10
16.099913
 20
221.223020
 30
0.0
 10
16.099913
 20
223.584867
 30
0.0
  0
LWPOLYLINE
  5
10c
100
AcDbEntity
  8
text
 62
1
100
AcDbPolyline
 90
2
 70
0
 10
14.914980
 20
242.076953
 30
0.0
 10
17.275417
 20
242.076953
 30
0.0
  0
SPLINE
  5
10d
100
AcDbEntity
  8
text
 62
1
100
AcDbSpline
 70
0
 71
3
 72
19
 73
15
 74
13
 40
0.000000
 40
0.000000
 40
0.000000
 40
0.000000
 40
1.596253
 40
3.049872
 40
4.646908
 40
6.242775
 40
7.695600
 40
9.291737
 40
10.887723
 40
12.340603
 40
13.936488
 40
15.533542
 40
16.987217
 40
18.583317
 40
18.583317
 40
18.583317
 40
18.583317
 10
13.142625
 20
242.076953
 30
0.0
 10
13.205835
 20
242.619347
 30
0.0
 10
13.326606
 20
243.655668
 30
0.0
 10
14.524104
 20
244.818373
 30
0.0
 10
16.093190
 20
245.138717
 30
0.0
 10
17.674473
 20
244.818380
 30
0.0
 10
18.835884
 20
243.655279
 30
0.0
 10
19.156020
 20
242.076999
 30
0.0
 10
18.835827
 20
240.498738
 30
0.0
 10
17.674494
 20
239.335622
 30
0.0
 10
16.093190
 20
239.015141
 30
0.0
 10
14.524082
 20
239.335631
 30
0.0
 10
13.326664
 20
240.498345
 30
0.0
 10
13.205852
 20
241.534619
 30
0.0
 10
13.142625
 20
242.076953
 30
0.0
 11
13.142625
 21
242.076953
 31
0.0
 11
13.514466
 21
243.629293
 31
0.0
 11
14.542552
 21
244.656935
 31
0.0
 11
16.095728
 21
245.028645
 31
0.0
 11
17.647702
 21
244.656935
 31
0.0
 11
18.674664
 21
243.629293
 31
0.0
 11
19.046008
 21
242.076953
 31
0.0
 11
18.674664
 21
240.524770
 31
0.0
 11
17.647702
 21
239.497050
 31
0.0
 11
16.095728
 21
239.125262
 31
0.0
 11
14.542552
 21
239.497050
 31
0.0
 11
13.514466
 21
240.524770
 31
0.0
 11
13.142625
 21
242.076953
 31
0.0
  0
LWPOLYLINE
  5
10e
100
AcDbEntity
  8
text
 62
1
100
AcDbPolyline
 90
2
 70
0
 10
16.095728
 20
240.896206
 30
0.0
 10
16.095728
 20
243.258053
 30
0.0
  0
LWPOLYLINE
  5
10f
100
AcDbEntity
  8
text
 62
1
100
AcDbPolyline
 90
2
 70
0
 10
14.914980
 20
203.295548
 30
0.0
 10
17.275417
 20
203.295548
 30
0.0
  0
SPLINE
  5
110
100
AcDbEntity
  8
text
 62
1
100
AcDbSpline
 70
0
 71
3
 72
19
 73
15
 74
13
 40
0.000000
 40
0.000000
 40
0.000000
 40
0.000000
 40
1.596253
 40
3.049872
 40
4.646908
 40
6.242775
 40
7.695600
 40
9.291737
 40
10.887723
 40
12.340603
 40
13.936488
 40
15.533542
 40
16.987217
 40
18.583317
 40
18.583317
 40
18.583317
 40
18.583317
 10
13.142625
 20
203.295548
 30
0.0
 10
13.205835
 20
203.837941
 30
0.0
 10
13.326606
 20
204.874263
 30
0.0
 10
14.524104
 20
206.036967
 30
0.0
 10
16.093190
 20
206.357311
 30
0.0
 10
17.674473
 20
206.036975
 30
0.0
 10
18.835884
 20
204.873873
 30
0.0
 10
19.156020
 20
203.295593
 30
0.0
 10
18.835827
 20
201.717332
 30
0.0
 10
17.674494
 20
200.554216
 30
0.0
 10
16.093190
 20
200.233735
 30
0.0
 10
14.524082
 20
200.554225
 30
0.0
 10
13.326664
 20
201.716939
 30
0.0
 10
13.205852
 20
202.753213
 30
0.0
 10
13.142625
 20
203.295548
 30
0.0
 11
13.142625
 21
203.295548
 31
0.0
 11
13.514466
 21
204.847887
 31
0.0
 11
14.542552
 21
205.875529
 31
0.0
 11
16.095728
 21
206.247239
 31
0.0
 11
17.647702
 21
205.875529
 31
0.0
 11
18.674664
 21
204.847887
 31
0.0
 11
19.046008
 21
203.295548
 31
0.0
 11
18.674664
 21
201.743365
 31
0.0
 11
17.647702
 21
200.715645
 31
0.0
 11
16.095728
 21
200.343856
 31
0.0
 11
14.542552
 21
200.715645
 31
0.0
 11
13.514466
 21
201.743365
 31
0.0
 11
13.142625
 21
203.295548
 31
0.0
  0
LWPOLYLINE
  5
111
100
AcDbEntity
  8
text
 62
1
100
AcDbPolyline
 90
2
 70
0
 10
16.095728
 20
202.114800
 30
0.0
 10
16.095728
 20
204.476648
 30
0.0
  0
LWPOLYLINE
  5
112
100
AcDbEntity
  8
text
 62
1
100
AcDbPolyline
 90
2
 70
0
 10
14.914980
 20
189.318506
 30
0.0
 10
17.275417
 20
189.318506
 30
0.0
  0
LWPOLYLINE
  5
113
100
AcDbEntity
  8
text
 62
1
100
AcDbPolyline
 90
2
 70
0
 10
16.095728
 20
188.137759
 30
0.0
 10
16.095728
 20
190.499606
 30
0.0
  0
LWPOLYLINE
  5
114
100
AcDbEntity
  8
text
 62
1
100
AcDbPolyline
 90
2
 70
0
 10
16.138692
 20
201.733642
 30
0.0
 10
16.138692
 20
176.927875
 30
0.0
  0
LWPOLYLINE
  5
115
100
AcDbEntity
  8
text
 62
1
100
AcDbPolyline
 90
3
 70
0
 10
16.039070
 20
220.761592
 30
0.0
 10
16.039070
 20
210.799436
 30
0.0
 10
13.349288
 20
213.987328
 30
0.0
  0
SPLINE
  5
116
100
AcDbEntity
  8
text
 62
1
100
AcDbSpline
 70
0
 71
3
 72
19
 73
15
 74
13
 40
0.000000
 40
0.000000
 40
0.000000
 40
0.000000
 40
1.596253
 40
3.049872
 40
4.646908
 40
6.242775
 40
7.695600
 40
9.291737
 40
10.887723
 40
12.340603
 40
13.936488
 40
15.533542
 40
16.987217
 40
18.583317
 40
18.583317
 40
18.583317
 40
18.583317
 10
13.142625
 20
189.318506
 30
0.0
 10
13.205835
 20
189.860900
 30
0.0
 10
13.326606
 20
190.897221
 30
0.0
 10
14.524104
 20
192.059925
 30
0.0
 10
16.093190
 20
192.380270
 30
0.0
 10
17.674473
 20
192.059933
 30
0.0
 10
18.835884
 20
190.896832
 30
0.0
 10
19.156020
 20
189.318551
 30
0.0
 10
18.835827
 20
187.740290
 30
0.0
 10
17.674494
 20
186.577175
 30
0.0
 10
16.093190
 20
186.256694
 30
0.0
 10
14.524082
 20
186.577184
 30
0.0
 10
13.326664
 20
187.739898
 30
0.0
 10
13.205852
 20
188.776172
 30
0.0
 10
13.142625
 20
189.318506
 30
0.0
 11
13.142625
 21
189.318506
 31
0.0
 11
13.514466
 21
190.870846
 31
0.0
 11
14.542552
 21
191.898488
 31
0.0
 11
16.095728
 21
192.270198
 31
0.0
 11
17.647702
 21
191.898488
 31
0.0
 11
18.674664
 21
190.870846
 31
0.0
 11
19.046008
 21
189.318506
 31
0.0
 11
18.674664
 21
187.766323
 31
0.0
 11
17.647702
 21
186.738603
 31
0.0
 11
16.095728
 21
186.366815
 31
0.0
 11
14.542552
 21
186.738603
 31
0.0
 11
13.514466
 21
187.766323
 31
0.0
 11
13.142625
 21
189.318506
 31
0.0
  0
LWPOLYLINE
  5
117
100
AcDbEntity
  8
text
 62
1
100
AcDbPolyline
 90
3
 70
0
 10
16.263672
 20
220.761592
 30
0.0
 10
16.263672
 20
210.799436
 30
0.0
 10
18.953454
 20
213.987328
 30
0.0
  0
ENDSEC
  0
SECTION
  2
OBJECTS
  0
DICTIONARY
  5
C
330
0
100
AcDbDictionary
  3
ACAD_GROUP
350
D
  3
ACAD_MLINESTYLE
350
17
  0
DICTIONARY
  5
D
330
C
100
AcDbDictionary
  0
DICTIONARY
  5
1A
330
C
100
AcDbDictionary
  0
DICTIONARY
  5
17
330
C
100
AcDbDictionary
  3
STANDARD
350
18
  0
DICTIONARY
  5
19
330
C
100
AcDbDictionary
  0
ENDSEC
  0
EOF
